v -0.090669 -0.105613 -1.290652
v -0.090669 0.105613 -1.290652
v 0.421625 -0.105613 -1.223207
v 0.421625 0.105613 -1.223207
v 0.566804 -0.105613 -1.163072
v 0.566804 0.105613 -1.163072
v 0.976742 -0.105613 -0.848516
v 0.976742 0.105613 -0.848516
v 1.072403 -0.105613 -0.723848
v 1.072403 0.105613 -0.723848
v 1.270141 -0.105613 -0.246465
v 1.270141 0.105613 -0.246465
v 1.290652 -0.105613 -0.090669
v 1.290652 0.105613 -0.090669
v 1.223207 -0.105613 0.421625
v 1.223207 0.105613 0.421625
v 1.163072 -0.105613 0.566804
v 1.163072 0.105613 0.566804
v 0.848516 -0.105613 0.976742
v 0.848516 0.105613 0.976742
v 0.723848 -0.105613 1.072403
v 0.723848 0.105613 1.072403
v 0.246466 -0.105613 1.270141
v 0.246466 0.105613 1.270141
v 0.090669 -0.105613 1.290652
v 0.090669 0.105613 1.290652
v -0.421625 -0.105613 1.223207
v -0.421625 0.105613 1.223207
v -0.566804 -0.105613 1.163072
v -0.566804 0.105613 1.163072
v -0.976741 -0.105613 0.848516
v -0.976741 0.105613 0.848516
v -1.072403 -0.105613 0.723848
v -1.072403 0.105613 0.723848
v -1.270141 -0.105613 0.246465
v -1.270141 0.105613 0.246465
v -1.290652 -0.105613 0.090669
v -1.290652 0.105613 0.090669
v -1.223207 -0.105613 -0.421625
v -1.223207 0.105613 -0.421625
v -1.163072 -0.105613 -0.566804
v -1.163072 0.105613 -0.566804
v -0.848516 -0.105613 -0.976741
v -0.848516 0.105613 -0.976741
v -0.723848 -0.105613 -1.072402
v -0.723848 0.105613 -1.072402
v -0.246465 -0.105613 -1.270141
v -0.246465 0.105613 -1.270141
v 0.000000 -0.111401 -1.000000
v 0.000000 0.111401 -1.000000
v 0.258819 0.111401 -0.965926
v 0.258819 -0.111401 -0.965926
v 0.500000 -0.111401 -0.866025
v 0.500000 0.111401 -0.866025
v 0.707107 0.111401 -0.707107
v 0.707107 -0.111401 -0.707107
v 0.866025 -0.111401 -0.500000
v 0.866025 0.111401 -0.500000
v 0.965926 0.111401 -0.258819
v 0.965926 -0.111401 -0.258819
v 1.000000 -0.111401 0.000000
v 1.000000 0.111401 0.000000
v 0.965926 0.111401 0.258819
v 0.965926 -0.111401 0.258819
v 0.866025 -0.111401 0.500000
v 0.866025 0.111401 0.500000
v 0.707107 0.111401 0.707107
v 0.707107 -0.111401 0.707107
v 0.500000 -0.111401 0.866025
v 0.500000 0.111401 0.866025
v 0.258819 0.111401 0.965926
v 0.258819 -0.111401 0.965926
v -0.000000 -0.111401 1.000000
v -0.000000 0.111401 1.000000
v -0.258819 0.111401 0.965926
v -0.258819 -0.111401 0.965926
v -0.500000 -0.111401 0.866025
v -0.500000 0.111401 0.866025
v -0.707107 0.111401 0.707107
v -0.707107 -0.111401 0.707107
v -0.866025 -0.111401 0.500000
v -0.866025 0.111401 0.500000
v -0.965926 0.111401 0.258819
v -0.965926 -0.111401 0.258819
v -1.000000 -0.111401 -0.000000
v -1.000000 0.111401 -0.000000
v -0.965926 0.111401 -0.258819
v -0.965926 -0.111401 -0.258819
v -0.866025 -0.111401 -0.500000
v -0.866025 0.111401 -0.500000
v -0.707107 0.111401 -0.707107
v -0.707107 -0.111401 -0.707107
v -0.500000 -0.111401 -0.866025
v -0.500000 0.111401 -0.866025
v -0.258819 0.111401 -0.965926
v -0.258819 -0.111401 -0.965926
vt 1.000000 0.500000
vt 1.000000 1.000000
vt 0.958333 1.000000
vt 0.958333 0.500000
vt 0.950041 0.512989
vt 0.950041 0.987011
vt 0.924959 0.987011
vt 0.924959 0.512989
vt 0.916667 0.500000
vt 0.916667 1.000000
vt 0.875000 1.000000
vt 0.875000 0.500000
vt 0.866707 0.512989
vt 0.866707 0.987011
vt 0.841626 0.987011
vt 0.841626 0.512989
vt 0.833333 0.500000
vt 0.833333 1.000000
vt 0.791667 1.000000
vt 0.791667 0.500000
vt 0.783374 0.512989
vt 0.783374 0.987011
vt 0.758293 0.987011
vt 0.758293 0.512989
vt 0.750000 0.500000
vt 0.750000 1.000000
vt 0.708333 1.000000
vt 0.708333 0.500000
vt 0.700041 0.512989
vt 0.700041 0.987011
vt 0.674959 0.987011
vt 0.674959 0.512989
vt 0.666667 0.500000
vt 0.666667 1.000000
vt 0.625000 1.000000
vt 0.625000 0.500000
vt 0.616707 0.512989
vt 0.616707 0.987011
vt 0.591626 0.987011
vt 0.591626 0.512989
vt 0.583333 0.500000
vt 0.583333 1.000000
vt 0.541666 1.000000
vt 0.541666 0.500000
vt 0.533374 0.512989
vt 0.533374 0.987011
vt 0.508292 0.987011
vt 0.508292 0.512989
vt 0.500000 0.500000
vt 0.500000 1.000000
vt 0.458333 1.000000
vt 0.458333 0.500000
vt 0.450040 0.512989
vt 0.450040 0.987011
vt 0.424959 0.987011
vt 0.424959 0.512989
vt 0.416666 0.500000
vt 0.416666 1.000000
vt 0.375000 1.000000
vt 0.375000 0.500000
vt 0.366707 0.512989
vt 0.366707 0.987011
vt 0.341626 0.987011
vt 0.341626 0.512989
vt 0.333333 0.500000
vt 0.333333 1.000000
vt 0.291667 1.000000
vt 0.291667 0.500000
vt 0.283374 0.512989
vt 0.283374 0.987011
vt 0.258293 0.987011
vt 0.258293 0.512989
vt 0.250000 0.500000
vt 0.250000 1.000000
vt 0.208333 1.000000
vt 0.208333 0.500000
vt 0.200040 0.512989
vt 0.200040 0.987011
vt 0.174959 0.987011
vt 0.174959 0.512989
vt 0.166666 0.500000
vt 0.166666 1.000000
vt 0.125000 1.000000
vt 0.125000 0.500000
vt 0.116707 0.512989
vt 0.116707 0.987011
vt 0.091626 0.987011
vt 0.091626 0.512989
vt 0.312117 0.481822
vt 0.250000 0.490000
vt 0.187883 0.481822
vt 0.130000 0.457846
vt 0.080294 0.419706
vt 0.042154 0.370000
vt 0.018178 0.312117
vt 0.010000 0.250000
vt 0.018178 0.187883
vt 0.042154 0.130000
vt 0.080294 0.080294
vt 0.130000 0.042154
vt 0.187883 0.018178
vt 0.250000 0.010000
vt 0.312117 0.018178
vt 0.370000 0.042154
vt 0.419706 0.080294
vt 0.457846 0.130000
vt 0.481822 0.187883
vt 0.490000 0.250000
vt 0.481822 0.312117
vt 0.457846 0.370000
vt 0.419706 0.419706
vt 0.370000 0.457846
vt 0.083333 0.500000
vt 0.083333 1.000000
vt 0.041666 1.000000
vt 0.041666 0.500000
vt 0.033374 0.512989
vt 0.033374 0.987011
vt 0.008293 0.987011
vt 0.008293 0.512989
vt 0.750000 0.490000
vt 0.812117 0.481822
vt 0.870000 0.457846
vt 0.919706 0.419706
vt 0.957846 0.370000
vt 0.981822 0.312117
vt 0.990000 0.250000
vt 0.981822 0.187883
vt 0.957846 0.130000
vt 0.919706 0.080294
vt 0.870000 0.042154
vt 0.812117 0.018178
vt 0.750000 0.010000
vt 0.687883 0.018178
vt 0.630000 0.042154
vt 0.580294 0.080294
vt 0.542154 0.130000
vt 0.518178 0.187883
vt 0.510000 0.250000
vt 0.518178 0.312117
vt 0.542154 0.370000
vt 0.580294 0.419706
vt 0.630000 0.457846
vt 0.687883 0.481822
vt -0.000000 1.000000
vt -0.000000 0.500000
vn 0.1305 0.0000 -0.9914
vn 0.3827 0.0000 -0.9239
vn 0.6088 0.0000 -0.7934
vn 0.7934 0.0000 -0.6088
vn 0.9239 0.0000 -0.3827
vn 0.9914 0.0000 -0.1305
vn 0.9914 0.0000 0.1305
vn 0.9239 0.0000 0.3827
vn 0.7934 0.0000 0.6088
vn 0.6088 0.0000 0.7934
vn 0.3827 0.0000 0.9239
vn 0.1305 0.0000 0.9914
vn -0.1305 0.0000 0.9914
vn -0.3827 0.0000 0.9239
vn -0.6088 0.0000 0.7934
vn -0.7934 0.0000 0.6088
vn -0.9239 0.0000 0.3827
vn -0.9914 0.0000 0.1305
vn -0.9914 0.0000 -0.1305
vn -0.9239 0.0000 -0.3827
vn -0.7934 0.0000 -0.6088
vn -0.6088 0.0000 -0.7934
vn 0.0000 1.0000 -0.0000
vn -0.3827 0.0000 -0.9239
vn -0.1305 0.0000 -0.9914
vn 0.0000 -1.0000 0.0000
vn 0.9546 0.0000 -0.2978
vn -0.8450 0.0000 -0.5347
vn 0.0074 -0.9998 -0.0178
vn 0.0074 0.9998 -0.0178
vn 0.9756 0.0000 0.2194
vn -0.4644 0.0000 -0.8856
vn 0.0153 -0.9998 -0.0117
vn 0.0153 0.9998 -0.0117
vn 0.7352 0.0000 0.6778
vn 0.0406 0.0000 -0.9992
vn 0.0191 -0.9998 -0.0025
vn 0.0191 0.9998 -0.0025
vn 0.2978 0.0000 0.9546
vn 0.5347 0.0000 -0.8450
vn 0.0178 -0.9998 0.0074
vn 0.0178 0.9998 0.0074
vn -0.2194 0.0000 0.9756
vn 0.8856 0.0000 -0.4644
vn 0.0117 -0.9998 0.0153
vn 0.0117 0.9998 0.0153
vn -0.6778 0.0000 0.7352
vn 0.9992 0.0000 0.0406
vn 0.0025 -0.9998 0.0191
vn 0.0025 0.9998 0.0191
vn -0.9546 0.0000 0.2978
vn 0.8450 0.0000 0.5347
vn -0.0074 -0.9998 0.0178
vn -0.0074 0.9998 0.0178
vn -0.9756 0.0000 -0.2194
vn 0.4644 0.0000 0.8856
vn -0.0153 -0.9998 0.0117
vn -0.0153 0.9998 0.0117
vn -0.7352 0.0000 -0.6778
vn -0.0406 0.0000 0.9992
vn -0.0191 -0.9998 0.0025
vn -0.0191 0.9998 0.0025
vn -0.2978 0.0000 -0.9546
vn -0.5347 0.0000 0.8450
vn -0.0178 -0.9998 -0.0074
vn -0.0178 0.9998 -0.0074
vn 0.2194 0.0000 -0.9756
vn -0.8856 0.0000 0.4644
vn -0.0117 -0.9998 -0.0153
vn -0.0117 0.9998 -0.0153
vn 0.6778 0.0000 -0.7352
vn -0.9992 0.0000 -0.0406
vn -0.0025 -0.9998 -0.0191
vn -0.0025 0.9998 -0.0191
usemtl None
s off
f 49/1/1 50/2/1 51/3/1 52/4/1
f 3/5/2 4/6/2 6/7/2 5/8/2
f 53/9/3 54/10/3 55/11/3 56/12/3
f 7/13/4 8/14/4 10/15/4 9/16/4
f 57/17/5 58/18/5 59/19/5 60/20/5
f 11/21/6 12/22/6 14/23/6 13/24/6
f 61/25/7 62/26/7 63/27/7 64/28/7
f 15/29/8 16/30/8 18/31/8 17/32/8
f 65/33/9 66/34/9 67/35/9 68/36/9
f 19/37/10 20/38/10 22/39/10 21/40/10
f 69/41/11 70/42/11 71/43/11 72/44/11
f 23/45/12 24/46/12 26/47/12 25/48/12
f 73/49/13 74/50/13 75/51/13 76/52/13
f 27/53/14 28/54/14 30/55/14 29/56/14
f 77/57/15 78/58/15 79/59/15 80/60/15
f 31/61/16 32/62/16 34/63/16 33/64/16
f 81/65/17 82/66/17 83/67/17 84/68/17
f 35/69/18 36/70/18 38/71/18 37/72/18
f 85/73/19 86/74/19 87/75/19 88/76/19
f 39/77/20 40/78/20 42/79/20 41/80/20
f 89/81/21 90/82/21 91/83/21 92/84/21
f 43/85/22 44/86/22 46/87/22 45/88/22
f 51/89/23 50/90/23 95/91/23 94/92/23 91/93/23 90/94/23 87/95/23 86/96/23 83/97/23 82/98/23 79/99/23 78/100/23 75/101/23 74/102/23 71/103/23 70/104/23 67/105/23 66/106/23 63/107/23 62/108/23 59/109/23 58/110/23 55/111/23 54/112/23
f 93/113/24 94/114/24 95/115/24 96/116/24
f 47/117/25 48/118/25 2/119/25 1/120/25
f 49/121/26 52/122/26 53/123/26 56/124/26 57/125/26 60/126/26 61/127/26 64/128/26 65/129/26 68/130/26 69/131/26 72/132/26 73/133/26 76/134/26 77/135/26 80/136/26 81/137/26 84/138/26 85/139/26 88/140/26 89/141/26 92/142/26 93/143/26 96/144/26
f 1/120/27 2/119/27 50/145/27 49/146/27
f 4/6/28 3/5/28 52/4/28 51/3/28
f 3/5/29 5/8/29 53/9/29 52/4/29
f 6/7/30 4/6/30 51/3/30 54/10/30
f 5/8/31 6/7/31 54/10/31 53/9/31
f 8/14/32 7/13/32 56/12/32 55/11/32
f 7/13/33 9/16/33 57/17/33 56/12/33
f 10/15/34 8/14/34 55/11/34 58/18/34
f 9/16/35 10/15/35 58/18/35 57/17/35
f 12/22/36 11/21/36 60/20/36 59/19/36
f 11/21/37 13/24/37 61/25/37 60/20/37
f 14/23/38 12/22/38 59/19/38 62/26/38
f 13/24/39 14/23/39 62/26/39 61/25/39
f 16/30/40 15/29/40 64/28/40 63/27/40
f 15/29/41 17/32/41 65/33/41 64/28/41
f 18/31/42 16/30/42 63/27/42 66/34/42
f 17/32/43 18/31/43 66/34/43 65/33/43
f 20/38/44 19/37/44 68/36/44 67/35/44
f 19/37/45 21/40/45 69/41/45 68/36/45
f 22/39/46 20/38/46 67/35/46 70/42/46
f 21/40/47 22/39/47 70/42/47 69/41/47
f 24/46/48 23/45/48 72/44/48 71/43/48
f 23/45/49 25/48/49 73/49/49 72/44/49
f 26/47/50 24/46/50 71/43/50 74/50/50
f 25/48/51 26/47/51 74/50/51 73/49/51
f 28/54/52 27/53/52 76/52/52 75/51/52
f 27/53/53 29/56/53 77/57/53 76/52/53
f 30/55/54 28/54/54 75/51/54 78/58/54
f 29/56/55 30/55/55 78/58/55 77/57/55
f 32/62/56 31/61/56 80/60/56 79/59/56
f 31/61/57 33/64/57 81/65/57 80/60/57
f 34/63/58 32/62/58 79/59/58 82/66/58
f 33/64/59 34/63/59 82/66/59 81/65/59
f 36/70/60 35/69/60 84/68/60 83/67/60
f 35/69/61 37/72/61 85/73/61 84/68/61
f 38/71/62 36/70/62 83/67/62 86/74/62
f 37/72/63 38/71/63 86/74/63 85/73/63
f 40/78/64 39/77/64 88/76/64 87/75/64
f 39/77/65 41/80/65 89/81/65 88/76/65
f 42/79/66 40/78/66 87/75/66 90/82/66
f 41/80/67 42/79/67 90/82/67 89/81/67
f 44/86/68 43/85/68 92/84/68 91/83/68
f 43/85/69 45/88/69 93/113/69 92/84/69
f 46/87/70 44/86/70 91/83/70 94/114/70
f 45/88/71 46/87/71 94/114/71 93/113/71
f 48/118/72 47/117/72 96/116/72 95/115/72
f 47/117/73 1/120/73 49/146/73 96/116/73
f 2/119/74 48/118/74 95/115/74 50/145/74
